name Walk10.mot
datacolumns 19
datarows 20
range 1.99700000 2.01600000
endheader

                time	   L_ground_force_vx	   L_ground_force_vy	   L_ground_force_vz	   L_ground_force_px	   L_ground_force_py	   L_ground_force_pz	   R_ground_force_vx	   R_ground_force_vy	   R_ground_force_vz	   R_ground_force_px	   R_ground_force_py	   R_ground_force_pz	   L_ground_torque_x	   L_ground_torque_y	   L_ground_torque_z	   R_ground_torque_x	   R_ground_torque_y	   R_ground_torque_z	
          1.99700000	          0.14267377	          0.44062114	          0.00124456	         -0.00004977	          0.00000000	         -0.00000243	        -19.89295597	        677.73689798	        -42.99722384	          0.28885386	          0.00000000	          0.07728836	          0.00000000	          0.00077030	          0.00000000	          0.00000000	          5.00806866	          0.00000000	
          1.99800000	          0.14022302	          0.43204906	          0.00024153	         -0.00006579	          0.00000000	         -0.00001024	        -19.55053570	        676.29054608	        -42.99493005	          0.28942326	          0.00000000	          0.07735253	          0.00000000	          0.00073909	          0.00000000	          0.00000000	          4.94803508	          0.00000000	
          1.99900000	          0.13745076	          0.42257319	         -0.00067714	         -0.00008021	          0.00000000	         -0.00001735	        -19.21120250	        674.85794974	        -42.99486098	          0.28999097	          0.00000000	          0.07741570	          0.00000000	          0.00070774	          0.00000000	          0.00000000	          4.88900398	          0.00000000	
          2.00000000	          0.13439482	          0.41230620	         -0.00151514	         -0.00009310	          0.00000000	         -0.00002379	        -18.87497042	        673.43941132	        -42.99687686	          0.29055700	          0.00000000	          0.07747784	          0.00000000	          0.00067639	          0.00000000	          0.00000000	          4.83095367	          0.00000000	
          2.00100000	          0.13109086	          0.40135415	         -0.00227616	         -0.00010453	          0.00000000	         -0.00002959	        -18.54184902	        672.03521579	        -43.00083024	          0.29112139	          0.00000000	          0.07753892	          0.00000000	          0.00064514	          0.00000000	          0.00000000	          4.77386100	          0.00000000	
          2.00200000	          0.12757246	          0.38981665	         -0.00296388	         -0.00011461	          0.00000000	         -0.00003479	        -18.21184304	        670.64563435	        -43.00656642	          0.29168414	          0.00000000	          0.07759891	          0.00000000	          0.00061411	          0.00000000	          0.00000000	          4.71770120	          0.00000000	
          2.00300000	          0.12387114	          0.37778710	         -0.00358192	         -0.00012339	          0.00000000	         -0.00003941	        -17.88495203	        669.27092780	        -43.01392425	          0.29224528	          0.00000000	          0.07765778	          0.00000000	          0.00058340	          0.00000000	          0.00000000	          4.66244787	          0.00000000	
          2.00400000	          0.12001644	          0.36535278	         -0.00413388	         -0.00013096	          0.00000000	         -0.00004349	        -17.56116995	        667.91134940	        -43.02273715	          0.29280483	          0.00000000	          0.07771549	          0.00000000	          0.00055309	          0.00000000	          0.00000000	          4.60807315	          0.00000000	
          2.00500000	          0.11603597	          0.35259510	         -0.00462329	         -0.00013739	          0.00000000	         -0.00004706	        -17.24048508	        666.56714723	        -43.03283449	          0.29336281	          0.00000000	          0.07777201	          0.00000000	          0.00052328	          0.00000000	          0.00000000	          4.55454796	          0.00000000	
          2.00600000	          0.11195546	          0.33958975	         -0.00505362	         -0.00014275	          0.00000000	         -0.00005015	        -16.92288024	        665.23856647	        -43.04404309	          0.29391924	          0.00000000	          0.07782730	          0.00000000	          0.00049402	          0.00000000	          0.00000000	          4.50184242	          0.00000000	
          2.00700000	          0.10779884	          0.32640694	         -0.00542826	         -0.00014712	          0.00000000	         -0.00005279	        -16.60833321	        663.92585163	        -43.05618875	          0.29447414	          0.00000000	          0.07788133	          0.00000000	          0.00046538	          0.00000000	          0.00000000	          4.44992634	          0.00000000	
          2.00800000	          0.10358828	          0.31311157	         -0.00575054	         -0.00015056	          0.00000000	         -0.00005500	        -16.29681726	        662.62924878	        -43.06909749	          0.29502752	          0.00000000	          0.07793408	          0.00000000	          0.00043742	          0.00000000	          0.00000000	          4.39876977	          0.00000000	
          2.00900000	          0.09934429	          0.29976345	         -0.00602368	         -0.00015314	          0.00000000	         -0.00005681	        -15.98830158	        661.34900739	        -43.08259646	          0.29557937	          0.00000000	          0.07798550	          0.00000000	          0.00041018	          0.00000000	          0.00000000	          4.34834342	          0.00000000	
          2.01000000	          0.09508575	          0.28641751	         -0.00625084	         -0.00015493	          0.00000000	         -0.00005826	        -15.68275153	        660.08538127	        -43.09651427	          0.29612971	          0.00000000	          0.07803558	          0.00000000	          0.00038371	          0.00000000	          0.00000000	          4.29861901	          0.00000000	
          2.01100000	          0.09082997	          0.27312399	         -0.00643507	         -0.00015597	          0.00000000	         -0.00005937	        -15.38012878	        658.83862850	        -43.11068098	          0.29667854	          0.00000000	          0.07808429	          0.00000000	          0.00035804	          0.00000000	          0.00000000	          4.24956928	          0.00000000	
          2.01200000	          0.08659281	          0.25992867	         -0.00657931	         -0.00015634	          0.00000000	         -0.00006015	        -15.08039140	        657.60901073	        -43.12492787	          0.29722586	          0.00000000	          0.07813161	          0.00000000	          0.00033319	          0.00000000	          0.00000000	          4.20116791	          0.00000000	
          2.01300000	          0.08238870	          0.24687306	         -0.00668643	         -0.00015608	          0.00000000	         -0.00006065	        -14.78349400	        656.39679275	        -43.13908732	          0.29777166	          0.00000000	          0.07817751	          0.00000000	          0.00030921	          0.00000000	          0.00000000	          4.15338913	          0.00000000	
          2.01400000	          0.07823072	          0.23399462	         -0.00675918	         -0.00015526	          0.00000000	         -0.00006087	        -14.48938811	        655.20224348	        -43.15299311	          0.29831594	          0.00000000	          0.07822198	          0.00000000	          0.00028609	          0.00000000	          0.00000000	          4.10620741	          0.00000000	
          2.01500000	          0.07413064	          0.22132695	         -0.00680019	         -0.00015392	          0.00000000	         -0.00006084	        -14.19802278	        654.02563869	        -43.16648099	          0.29885871	          0.00000000	          0.07826498	          0.00000000	          0.00026386	          0.00000000	          0.00000000	          4.05959715	          0.00000000	
          2.01600000	          0.07009905	          0.20889999	         -0.00681203	         -0.00015211	          0.00000000	         -0.00006058	        -13.90934523	        652.86726482	        -43.17938960	          0.29939996	          0.00000000	          0.07830652	          0.00000000	          0.00024252	          0.00000000	          0.00000000	          4.01353263	          0.00000000	
